<svg width="45" height="49" viewBox="0 0 45 49" fill="none" xmlns="http://www.w3.org/2000/svg">
<path d="M5.2675 43.2762H34.3796L32.9892 38.7743L36.3151 41.6286L39.3623 44.3603L44.9146 49V5.05312C44.7768 2.32137 42.4248 0 39.5093 0L5.27669 0.00612456C2.36425 0.00612456 0 2.33056 0 5.06231V38.22C0 41.1018 2.35813 43.2762 5.2675 43.2762ZM26.803 11.6038L26.7356 11.6283L26.7601 11.6038H26.803ZM11.221 14.1947C14.9634 11.4721 18.4301 11.6007 18.4301 11.6007L18.7088 11.8764C14.1304 12.9697 12.0509 15.0154 12.0509 15.0154C12.0509 15.0154 12.6053 14.7429 13.5761 14.3294C19.7439 11.9039 26.4784 12.0816 32.7167 15.1502C32.7167 15.1502 30.6373 13.2361 26.3375 12.0111L26.7203 11.6375C27.3144 11.6406 30.4596 11.7508 33.8253 14.21C33.8253 14.21 37.5891 20.6412 37.5891 28.5425C37.4636 28.3924 35.2524 31.9449 29.5623 32.0674C29.5623 32.0674 28.5976 30.9772 27.9147 30.0248C31.2436 29.0693 32.487 27.1583 32.487 27.1583C31.3937 27.8473 30.3984 28.2546 29.5899 28.6619C28.3465 29.2101 27.1001 29.4796 25.8567 29.7552C19.9675 30.7107 16.6631 29.1121 13.5393 27.8442L12.4705 27.3022C12.4705 27.3022 13.7139 29.2132 16.9081 30.1687C16.0689 31.1272 15.239 32.2144 15.239 32.2144C9.55194 32.0797 7.47556 28.5272 7.47556 28.5272C7.47862 20.6137 11.221 14.1947 11.221 14.1947Z" fill="white"/>
<path d="M27.1689 26.0742C28.6205 26.0742 29.8027 24.8492 29.8027 23.3394C29.8027 21.8388 28.6267 20.6138 27.1689 20.6138V20.6199C25.7234 20.6199 24.5382 21.8418 24.5352 23.3516C24.5352 24.8492 25.7173 26.0742 27.1689 26.0742Z" fill="white"/>
<path d="M19.6337 26.4604C21.0854 26.4604 22.2675 25.2354 22.2675 23.7256C22.2675 22.225 21.0946 21 19.6429 21L19.6337 21.0061C18.1821 21.0061 17 22.2281 17 23.7379C17 25.2354 18.1821 26.4604 19.6337 26.4604Z" fill="white"/>
</svg>
