<svg width="49" height="49" viewBox="0 0 49 49" fill="none" xmlns="http://www.w3.org/2000/svg">
<path d="M24.5 49C38.0332 49 49 38.0332 49 24.5C49 10.9668 38.0332 0 24.5 0C10.9668 0 0 10.9668 0 24.5C0 38.0332 10.9668 49 24.5 49ZM11.2087 23.9702L34.8298 14.8623C35.9262 14.4672 36.8847 15.1288 36.5295 16.7886L36.5326 16.7856L32.5115 35.7332C32.2144 37.0746 31.4151 37.4023 30.2973 36.7714L24.1723 32.2573L21.217 35.1024C20.8893 35.4301 20.6137 35.7057 19.9828 35.7057L20.4177 29.4704L31.7704 19.2141C32.2634 18.7793 31.6601 18.5343 31.0109 18.9661L16.9816 27.7983L10.9362 25.9118C9.61931 25.4984 9.59175 24.6011 11.2087 23.9702Z" fill="white"/>
</svg>
