<svg width="31" height="32" viewBox="0 0 31 32" fill="none" xmlns="http://www.w3.org/2000/svg">
<g clip-path="url(#clip0_114_254)">
<path d="M28.8377 2.54198C27.7297 1.43374 26.3948 0.879517 24.834 0.879517H5.94495C4.38414 0.879517 3.04923 1.43374 1.94079 2.54198C0.832544 3.65043 0.27832 4.98527 0.27832 6.54615V25.435C0.27832 26.9957 0.832544 28.3307 1.94079 29.4391C3.04923 30.5476 4.38414 31.1018 5.94495 31.1018H24.8338C26.3946 31.1018 27.7295 30.5476 28.8375 29.4391C29.9459 28.3307 30.5001 26.9958 30.5001 25.435V6.54615C30.5001 4.98527 29.9458 3.65022 28.8377 2.54198ZM23.3975 12.5081C23.4107 12.6261 23.4173 12.8029 23.4173 13.0394C23.4173 14.1413 23.2565 15.2465 22.9353 16.3546C22.6141 17.4632 22.1221 18.5257 21.4594 19.5422C20.7974 20.5587 20.007 21.4575 19.0889 22.2379C18.1706 23.018 17.0689 23.6414 15.7831 24.1067C14.498 24.5727 13.1204 24.8057 11.6514 24.8057C9.36919 24.8057 7.25732 24.1888 5.31589 22.9563C5.63069 22.9954 5.9588 23.0152 6.29966 23.0152C8.20175 23.0152 9.91356 22.4249 11.4352 21.244C10.5434 21.2313 9.74637 20.956 9.04466 20.4177C8.34275 19.8799 7.85428 19.1979 7.57875 18.3715C7.91968 18.4238 8.17542 18.4498 8.34592 18.4498C8.63448 18.4498 8.96906 18.3975 9.34934 18.2928C8.39182 18.1088 7.58523 17.6338 6.92935 16.8664C6.27334 16.099 5.94544 15.2235 5.94544 14.2397V14.2004C6.64045 14.5281 7.29633 14.6986 7.91292 14.7119C6.71923 13.9116 6.12241 12.764 6.12241 11.2686C6.12241 10.534 6.31248 9.83882 6.6929 9.18295C7.72905 10.4554 8.98857 11.4719 10.4706 12.2326C11.9528 12.9933 13.5401 13.4198 15.2322 13.5116C15.1667 13.2624 15.1338 12.9474 15.1338 12.5671C15.1338 11.4258 15.5372 10.452 16.344 9.64517C17.1505 8.83844 18.1246 8.43493 19.2656 8.43493C20.4727 8.43493 21.4764 8.86793 22.2764 9.73373C23.1816 9.56323 24.0608 9.22857 24.9132 8.73031C24.5853 9.74007 23.975 10.5075 23.0834 11.0322C23.9358 10.914 24.7292 10.6911 25.4636 10.3632C24.9128 11.2027 24.2239 11.9175 23.3975 12.5081Z" fill="#F4F5F6"/>
</g>
<defs>
<clipPath id="clip0_114_254">
<rect width="30.2222" height="30.2222" fill="white" transform="translate(0.277832 0.879517)"/>
</clipPath>
</defs>
</svg>
