<svg width="31" height="32" viewBox="0 0 31 32" fill="none" xmlns="http://www.w3.org/2000/svg">
<g clip-path="url(#clip0_114_259)">
<rect x="0.5" y="0.879517" width="30.2222" height="30.2222" rx="15.1111" fill="#030303"/>
<path fill-rule="evenodd" clip-rule="evenodd" d="M15.6111 31.1017C7.27881 31.1017 0.5 24.3229 0.5 15.9906C0.5 7.65833 7.27881 0.879517 15.6111 0.879517C23.9434 0.879517 30.7222 7.65833 30.7222 15.9906C30.7222 24.3229 23.9434 31.1017 15.6111 31.1017ZM18.3891 24.024C20.5369 23.2791 22.2964 21.6963 23.2737 19.6681H19.8127C19.6186 20.8349 19.3313 21.9108 18.9602 22.8388C18.7852 23.2761 18.5941 23.6715 18.3891 24.024ZM7.94854 19.6681C8.92586 21.6963 10.6854 23.2791 12.8331 24.024C12.6282 23.6715 12.437 23.2761 12.2621 22.8389C11.8908 21.9109 11.6036 20.8349 11.4095 19.6681H7.94854ZM12.8331 7.9573C10.6854 8.70211 8.92586 10.285 7.94854 12.3132H11.4095C11.6036 11.1464 11.8908 10.0704 12.2621 9.14246C12.437 8.70512 12.6281 8.30976 12.8331 7.9573ZM15.6111 7.49063C14.9914 7.49063 14.2643 8.34612 13.7135 9.72306C13.4096 10.4828 13.1687 11.3597 12.9957 12.3132H18.2266C18.0536 11.3597 17.8127 10.4828 17.5088 9.72306C16.9579 8.34612 16.2308 7.49063 15.6111 7.49063ZM7.11111 15.9906C7.11111 16.7203 7.20361 17.4287 7.37733 18.1049H11.2116C11.1495 17.4172 11.1166 16.7097 11.1166 15.9906C11.1166 15.2716 11.1495 14.564 11.2116 13.8764H7.37733C7.20361 14.5526 7.11111 15.261 7.11111 15.9906ZM12.7803 18.1049H18.442C18.508 17.4216 18.5425 16.7132 18.5425 15.9906C18.5425 15.2681 18.5081 14.5597 18.442 13.8764H12.7803C12.7143 14.5597 12.6798 15.2681 12.6798 15.9906C12.6798 16.7132 12.7142 17.4216 12.7803 18.1049ZM15.6111 24.4906C16.2308 24.4906 16.9579 23.6351 17.5087 22.2582C17.8127 21.4984 18.0535 20.6216 18.2265 19.6681H12.9956C13.1687 20.6215 13.4096 21.4984 13.7134 22.2582C14.2643 23.6351 14.9914 24.4906 15.6111 24.4906ZM24.1111 15.9906C24.1111 15.261 24.0186 14.5526 23.8449 13.8764H20.0106C20.0727 14.564 20.1056 15.2716 20.1056 15.9906C20.1056 16.7097 20.0727 17.4172 20.0106 18.1049H23.8449C24.0186 17.4287 24.1111 16.7203 24.1111 15.9906ZM23.2737 12.3131C22.2964 10.2849 20.5369 8.70205 18.3891 7.95724C18.594 8.30976 18.7852 8.70512 18.9601 9.14246C19.3313 10.0704 19.6186 11.1463 19.8126 12.3132H23.2737V12.3131ZM25.6743 15.9906C25.6743 21.5395 21.16 26.0539 15.6111 26.0539C10.0622 26.0539 5.54788 21.5395 5.54788 15.9906C5.54788 10.4418 10.0622 5.92739 15.6111 5.92739C21.16 5.92739 25.6743 10.4418 25.6743 15.9906Z" fill="#F4F5F6"/>
</g>
<defs>
<clipPath id="clip0_114_259">
<rect x="0.5" y="0.879517" width="30.2222" height="30.2222" rx="15.1111" fill="white"/>
</clipPath>
</defs>
</svg>
